<?xml version="1.0" encoding="UTF-8" standalone="no"?><svg xmlns="http://www.w3.org/2000/svg" xmlns:xlink="http://www.w3.org/1999/xlink" contentScriptType="application/ecmascript" contentStyleType="text/css" height="604.1522px" preserveAspectRatio="none" style="width:901px;height:604px;" version="1.1" viewBox="0 0 901 604" width="901.0381px" zoomAndPan="magnify"><defs><filter height="300%" id="f1usbf1phsnd4z" width="300%" x="-1" y="-1"><feGaussianBlur result="blurOut" stdDeviation="4.1522491349480966"/><feColorMatrix in="blurOut" result="blurOut2" type="matrix" values="0 0 0 0 0 0 0 0 0 0 0 0 0 0 0 0 0 0 .4 0"/><feOffset dx="8.304498269896193" dy="8.304498269896193" in="blurOut2" result="blurOut3"/><feBlend in="SourceGraphic" in2="blurOut3" mode="normal"/></filter></defs><g><!--entity App--><rect fill="#FEFECE" filter="url(#f1usbf1phsnd4z)" height="75.7542" rx="72.6644" ry="72.6644" style="stroke: #000000; stroke-width: 3.1141868512110724;" width="99.654" x="778.5467" y="495.1557"/><text fill="#000000" font-family="sans-serif" font-size="29.0657" lengthAdjust="spacingAndGlyphs" textLength="58.1315" x="799.308" y="544.0176">App</text><!--entity Git--><path d="M88.2353,506.5744 C88.2353,485.8131 128.7197,485.8131 128.7197,485.8131 C128.7197,485.8131 169.2042,485.8131 169.2042,506.5744 L169.2042,559.4912 C169.2042,580.2525 128.7197,580.2525 128.7197,580.2525 C128.7197,580.2525 88.2353,580.2525 88.2353,559.4912 L88.2353,506.5744 " fill="#88D3E7" filter="url(#f1usbf1phsnd4z)" style="stroke: #808080; stroke-width: 3.1141868512110724;"/><path d="M88.2353,506.5744 C88.2353,527.3356 128.7197,527.3356 128.7197,527.3356 C128.7197,527.3356 169.2042,527.3356 169.2042,506.5744 " fill="none" style="stroke: #808080; stroke-width: 3.1141868512110724;"/><text fill="#000000" font-family="sans-serif" font-size="29.0657" lengthAdjust="spacingAndGlyphs" textLength="39.4464" x="108.9965" y="563.7408">Git</text><!--entity AuroraKonsole--><rect fill="#FFD086" filter="url(#f1usbf1phsnd4z)" height="75.7542" rx="25.9516" ry="25.9516" style="stroke: #808080; stroke-width: 3.1141868512110724;" width="255.3633" x="142.2145" y="16.609"/><text fill="#000000" font-family="sans-serif" font-size="29.0657" lengthAdjust="spacingAndGlyphs" textLength="213.8408" x="162.9758" y="65.4709">AuroraKonsole</text><!--entity AO--><rect fill="#FFD086" filter="url(#f1usbf1phsnd4z)" height="75.7542" rx="25.9516" ry="25.9516" style="stroke: #808080; stroke-width: 3.1141868512110724;" width="85.1211" x="470.2422" y="16.609"/><text fill="#000000" font-family="sans-serif" font-size="29.0657" lengthAdjust="spacingAndGlyphs" textLength="43.5986" x="491.0035" y="65.4709">AO</text><!--entity AuroraApi--><rect fill="#FFD086" filter="url(#f1usbf1phsnd4z)" height="75.7542" rx="25.9516" ry="25.9516" style="stroke: #808080; stroke-width: 3.1141868512110724;" width="188.9273" x="418.3391" y="251.2111"/><text fill="#000000" font-family="sans-serif" font-size="29.0657" lengthAdjust="spacingAndGlyphs" textLength="147.4048" x="439.1003" y="300.073">AuroraApi</text><!--entity Jenkins--><rect fill="#FFD086" filter="url(#f1usbf1phsnd4z)" height="75.7542" rx="25.9516" ry="25.9516" style="stroke: #808080; stroke-width: 3.1141868512110724;" width="143.2526" x="628.0277" y="16.609"/><text fill="#000000" font-family="sans-serif" font-size="29.0657" lengthAdjust="spacingAndGlyphs" textLength="101.7301" x="648.7889" y="65.4709">Jenkins</text><!--entity AuroraConfig--><polygon fill="#FEFECE" filter="url(#f1usbf1phsnd4z)" points="12.4567,251.2111,12.4567,326.9653,249.1349,326.9653,249.1349,271.9723,228.3737,251.2111,12.4567,251.2111" style="stroke: #000000; stroke-width: 3.1141868512110724;"/><path d="M228.3737,251.2111 L228.3737,271.9723 L249.1349,271.9723 " fill="#FEFECE" style="stroke: #000000; stroke-width: 3.1141868512110724;"/><text fill="#000000" font-family="sans-serif" font-size="29.0657" lengthAdjust="spacingAndGlyphs" textLength="195.1557" x="33.218" y="300.073">AuroraConfig</text><!--entity kubernetes--><rect fill="#E4E48E" filter="url(#f1usbf1phsnd4z)" height="75.7542" style="stroke: #808080; stroke-width: 3.1141868512110724;" width="201.3841" x="414.1869" y="495.1557"/><rect fill="#E4E48E" height="10.3806" style="stroke: #808080; stroke-width: 3.1141868512110724;" width="20.7612" x="403.8062" y="505.5363"/><rect fill="#E4E48E" height="10.3806" style="stroke: #808080; stroke-width: 3.1141868512110724;" width="20.7612" x="403.8062" y="550.1487"/><text fill="#000000" font-family="sans-serif" font-size="29.0657" lengthAdjust="spacingAndGlyphs" textLength="159.8616" x="434.9481" y="544.0176">kubernetes</text><!--link AuroraConfig to Git--><path d="M130.3866,336.6598 C130.0202,379.7122 129.486,442.4763 129.1219,485.2742 " fill="none" id="AuroraConfig-Git" style="stroke: #000000; stroke-width: 2.0761245674740483;"/><polygon fill="#000000" points="130.4759,326.1631,122.0126,344.7768,130.3875,336.5434,138.621,344.9183,130.4759,326.1631" style="stroke: #000000; stroke-width: 2.0761245674740483;"/><text fill="#000000" font-family="sans-serif" font-size="26.9896" lengthAdjust="spacingAndGlyphs" textLength="112.1107" x="132.872" y="416.4049">provides</text><!--link Jenkins to AuroraApi--><path d="M669.633,91.6721 C636.944,132.7152 584.646,198.3781 549.5319,242.4658 " fill="none" id="Jenkins-AuroraApi" style="stroke: #000000; stroke-width: 2.0761245674740483;"/><polygon fill="#000000" points="542.7492,250.9821,560.886,241.5398,549.2163,242.8621,547.894,231.1924,542.7492,250.9821" style="stroke: #000000; stroke-width: 2.0761245674740483;"/><text fill="#000000" font-family="sans-serif" font-size="26.9896" lengthAdjust="spacingAndGlyphs" textLength="45.6747" x="618.6851" y="181.8028">use</text><!--link AO to AuroraApi--><path d="M512.8028,91.6721 C512.8028,132.0311 512.8028,196.1963 512.8028,240.2437 " fill="none" id="AO-AuroraApi" style="stroke: #000000; stroke-width: 2.0761245674740483;"/><polygon fill="#000000" points="512.8028,250.9821,521.1073,232.297,512.8028,240.6015,504.4983,232.297,512.8028,250.9821" style="stroke: #000000; stroke-width: 2.0761245674740483;"/><text fill="#000000" font-family="sans-serif" font-size="26.9896" lengthAdjust="spacingAndGlyphs" textLength="45.6747" x="514.8789" y="181.8028">use</text><!--link AuroraKonsole to AuroraApi--><path d="M308.9234,91.6721 C351.7734,133.0572 420.5415,199.4743 466.1913,243.5635 " fill="none" id="AuroraKonsole-AuroraApi" style="stroke: #000000; stroke-width: 2.0761245674740483;"/><polygon fill="#000000" points="473.8725,250.9821,466.2015,232.0281,466.4057,243.7707,454.6632,243.9749,473.8725,250.9821" style="stroke: #000000; stroke-width: 2.0761245674740483;"/><text fill="#000000" font-family="sans-serif" font-size="26.9896" lengthAdjust="spacingAndGlyphs" textLength="45.6747" x="408.9965" y="181.8028">use</text><!--link AuroraConfig to AuroraApi--><path d="M260.4623,288.5813 C312.0044,288.5813 370.2131,288.5813 417.7258,288.5813 " fill="none" id="AuroraConfig-AuroraApi" style="stroke: #000000; stroke-width: 2.0761245674740483;"/><polygon fill="#000000" points="249.5711,288.5813,268.2563,296.8858,259.9518,288.5813,268.2563,280.2768,249.5711,288.5813" style="stroke: #000000; stroke-width: 2.0761245674740483;"/><text fill="#000000" font-family="sans-serif" font-size="26.9896" lengthAdjust="spacingAndGlyphs" textLength="91.3495" x="288.0623" y="275.2284">extract</text><!--link AuroraApi to kubernetes--><path d="M513.1227,326.1631 C513.4827,368.4787 514.069,437.3743 514.4641,483.7939 " fill="none" id="AuroraApi-kubernetes" style="stroke: #000000; stroke-width: 2.0761245674740483;"/><polygon fill="#000000" points="514.5552,494.4997,522.6998,475.7443,514.4665,484.1194,506.0914,475.8862,514.5552,494.4997" style="stroke: #000000; stroke-width: 2.0761245674740483;"/><text fill="#000000" font-family="sans-serif" font-size="26.9896" lengthAdjust="spacingAndGlyphs" textLength="255.3633" x="514.8789" y="416.4049">add/update objects</text><!--link kubernetes to App--><path d="M615.7962,532.526 C665.629,532.526 724.1217,532.526 767.1222,532.526 " fill="none" id="kubernetes-App" style="stroke: #000000; stroke-width: 2.0761245674740483;"/><polygon fill="#000000" points="777.7059,532.526,759.0208,524.2215,767.3253,532.526,759.0208,540.8304,777.7059,532.526" style="stroke: #000000; stroke-width: 2.0761245674740483;"/><text fill="#000000" font-family="sans-serif" font-size="26.9896" lengthAdjust="spacingAndGlyphs" textLength="87.1972" x="653.4602" y="519.1731">deploy</text><!--link Git to kubernetes--><path d="M179.9201,532.526 C239.2808,532.526 338.5698,532.526 413.6745,532.526 " fill="none" id="Git-kubernetes" style="stroke: #000000; stroke-width: 2.0761245674740483;"/><polygon fill="#000000" points="169.3156,532.526,188.0008,540.8304,179.6963,532.526,188.0008,524.2215,169.3156,532.526" style="stroke: #000000; stroke-width: 2.0761245674740483;"/><text fill="#000000" font-family="sans-serif" font-size="26.9896" lengthAdjust="spacingAndGlyphs" textLength="168.1661" x="207.6125" y="519.1731">deployResult</text><!--
--></g></svg>
