<?xml version="1.0" encoding="UTF-8" standalone="no"?><svg xmlns="http://www.w3.org/2000/svg" xmlns:xlink="http://www.w3.org/1999/xlink" contentScriptType="application/ecmascript" contentStyleType="text/css" height="600px" preserveAspectRatio="none" style="width:633px;height:600px;" version="1.1" viewBox="0 0 633 600" width="633.557px" zoomAndPan="magnify"><defs><filter height="300%" id="fbcnt4f8aroft" width="300%" x="-1" y="-1"><feGaussianBlur result="blurOut" stdDeviation="2.684563758389262"/><feColorMatrix in="blurOut" result="blurOut2" type="matrix" values="0 0 0 0 0 0 0 0 0 0 0 0 0 0 0 0 0 0 .4 0"/><feOffset dx="5.369127516778524" dy="5.369127516778524" in="blurOut2" result="blurOut3"/><feBlend in="SourceGraphic" in2="blurOut3" mode="normal"/></filter></defs><g><!--entity DockerRegistry--><path d="M452.349,484.5638 C452.349,471.1409 534.8993,471.1409 534.8993,471.1409 C534.8993,471.1409 617.4497,471.1409 617.4497,484.5638 L617.4497,518.7762 C617.4497,532.199 534.8993,532.199 534.8993,532.199 C534.8993,532.199 452.349,532.199 452.349,518.7762 L452.349,484.5638 " fill="#88D3E7" filter="url(#fbcnt4f8aroft)" style="stroke: #808080; stroke-width: 2.0134228187919465;"/><path d="M452.349,484.5638 C452.349,497.9866 534.8993,497.9866 534.8993,497.9866 C534.8993,497.9866 617.4497,497.9866 617.4497,484.5638 " fill="none" style="stroke: #808080; stroke-width: 2.0134228187919465;"/><text fill="#000000" font-family="sans-serif" font-size="18.7919" lengthAdjust="spacingAndGlyphs" textLength="138.255" x="465.7718" y="521.5237">DockerRegistry</text><!--entity Nexus--><path d="M91.2752,52.349 C91.2752,38.9262 133.557,38.9262 133.557,38.9262 C133.557,38.9262 175.8389,38.9262 175.8389,52.349 L175.8389,86.5615 C175.8389,99.9843 133.557,99.9843 133.557,99.9843 C133.557,99.9843 91.2752,99.9843 91.2752,86.5615 L91.2752,52.349 " fill="#88D3E7" filter="url(#fbcnt4f8aroft)" style="stroke: #808080; stroke-width: 2.0134228187919465;"/><path d="M91.2752,52.349 C91.2752,65.7718 133.557,65.7718 133.557,65.7718 C133.557,65.7718 175.8389,65.7718 175.8389,52.349 " fill="none" style="stroke: #808080; stroke-width: 2.0134228187919465;"/><text fill="#000000" font-family="sans-serif" font-size="18.7919" lengthAdjust="spacingAndGlyphs" textLength="57.7181" x="104.698" y="89.3089">Nexus</text><!--entity architect--><rect fill="#FEFECE" filter="url(#fbcnt4f8aroft)" height="81.8477" rx="46.9799" ry="46.9799" style="stroke: #000000; stroke-width: 2.0134228187919465;" width="177.1812" x="181.8792" y="230.8725"/><text fill="#000000" font-family="sans-serif" font-size="18.7919" lengthAdjust="spacingAndGlyphs" textLength="150.3356" x="195.302" y="262.4633">aurora/architect</text><line style="stroke: #000000; stroke-width: 1.342281879194631;" x1="183.2215" x2="357.7181" y1="266.4272" y2="266.4272"/><text fill="#000000" font-family="sans-serif" font-size="18.7919" lengthAdjust="spacingAndGlyphs" textLength="46.9799" x="203.3557" y="289.9643">1.8.0</text><!--entity flange--><rect fill="#FEFECE" filter="url(#fbcnt4f8aroft)" height="81.8477" rx="46.9799" ry="46.9799" style="stroke: #000000; stroke-width: 2.0134228187919465;" width="155.7047" x="457.047" y="230.8725"/><text fill="#000000" font-family="sans-serif" font-size="18.7919" lengthAdjust="spacingAndGlyphs" textLength="128.8591" x="470.4698" y="262.4633">aurora/flange</text><line style="stroke: #000000; stroke-width: 1.342281879194631;" x1="458.3893" x2="611.4094" y1="266.4272" y2="266.4272"/><text fill="#000000" font-family="sans-serif" font-size="18.7919" lengthAdjust="spacingAndGlyphs" textLength="71.1409" x="478.5235" y="289.9643">8.162.1</text><!--entity BuildConfig--><rect fill="#E4E48E" filter="url(#fbcnt4f8aroft)" height="117.4025" style="stroke: #808080; stroke-width: 2.0134228187919465;" width="198.6577" x="309.396" y="10.7383"/><rect fill="#E4E48E" height="13.4228" style="stroke: #808080; stroke-width: 2.0134228187919465;" width="20.1342" x="481.2081" y="17.4497"/><rect fill="#E4E48E" height="2.6846" style="stroke: #808080; stroke-width: 2.0134228187919465;" width="5.3691" x="478.5235" y="20.1342"/><rect fill="#E4E48E" height="2.6846" style="stroke: #808080; stroke-width: 2.0134228187919465;" width="5.3691" x="478.5235" y="25.5034"/><text fill="#000000" font-family="sans-serif" font-size="18.7919" lengthAdjust="spacingAndGlyphs" textLength="107.3826" x="329.5302" y="55.7519">BuildConfig</text><line style="stroke: #808080; stroke-width: 1.342281879194631;" x1="310.7383" x2="506.7114" y1="59.7158" y2="59.7158"/><text fill="#000000" font-family="sans-serif" font-size="18.7919" lengthAdjust="spacingAndGlyphs" textLength="100.6711" x="337.5839" y="83.2529">name=app</text><text fill="#000000" font-family="sans-serif" font-size="18.7919" lengthAdjust="spacingAndGlyphs" textLength="128.8591" x="337.5839" y="105.3849">version=1.2.3</text><!--entity app--><rect fill="#FEFECE" filter="url(#fbcnt4f8aroft)" height="170.3754" rx="46.9799" ry="46.9799" style="stroke: #000000; stroke-width: 2.0134228187919465;" width="310.0671" x="8.0537" y="416.1074"/><text fill="#000000" font-family="sans-serif" font-size="18.7919" lengthAdjust="spacingAndGlyphs" textLength="34.8993" x="21.4765" y="447.6982">app</text><line style="stroke: #000000; stroke-width: 1.342281879194631;" x1="9.396" x2="316.7785" y1="451.6621" y2="451.6621"/><text fill="#000000" font-family="sans-serif" font-size="18.7919" lengthAdjust="spacingAndGlyphs" textLength="49.6644" x="29.5302" y="475.1992">latest</text><text fill="#000000" font-family="sans-serif" font-size="18.7919" lengthAdjust="spacingAndGlyphs" textLength="12.0805" x="29.5302" y="497.3312">1</text><text fill="#000000" font-family="sans-serif" font-size="18.7919" lengthAdjust="spacingAndGlyphs" textLength="29.5302" x="29.5302" y="519.4631">1.2</text><text fill="#000000" font-family="sans-serif" font-size="18.7919" lengthAdjust="spacingAndGlyphs" textLength="46.9799" x="29.5302" y="541.595">1.2.3</text><text fill="#000000" font-family="sans-serif" font-size="18.7919" lengthAdjust="spacingAndGlyphs" textLength="267.1141" x="29.5302" y="563.7269">1.2.3-b1.8.0-flange-8.162.1</text><!--link BuildConfig to architect--><path d="M389.0085,127.8936 C380.6188,148.6774 369.6668,171.5956 356.3758,190.604 C347.7852,202.8902 337.1027,214.7768 326.2216,225.4914 " fill="none" id="BuildConfig-architect" style="stroke: #000000; stroke-width: 1.342281879194631;"/><polygon fill="#000000" points="320.8723,230.6538,333.2935,226.1283,325.7017,225.9933,325.8366,218.4014,320.8723,230.6538" style="stroke: #000000; stroke-width: 1.342281879194631;"/><text fill="#000000" font-family="sans-serif" font-size="17.4497" lengthAdjust="spacingAndGlyphs" textLength="158.3893" x="369.7987" y="185.9978">use CustomBuilder</text><!--link Nexus to architect--><path d="M122.4945,106.6796 C117.2686,132.0506 114.9569,165.3877 129.5302,190.604 C141.4705,211.2644 160.8839,227.1336 181.5361,239.1234 " fill="none" id="Nexus-architect" style="stroke: #000000; stroke-width: 1.342281879194631;"/><polygon fill="#000000" points="124.0341,99.7483,116.173,110.3771,122.5787,106.3,126.6558,112.7057,124.0341,99.7483" style="stroke: #000000; stroke-width: 1.342281879194631;"/><text fill="#000000" font-family="sans-serif" font-size="17.4497" lengthAdjust="spacingAndGlyphs" textLength="218.7919" x="130.8725" y="185.9978">fetch DeliveryBundle from</text><!--link architect to flange--><path d="M359.2566,271.8121 C388.5651,271.8121 421.0764,271.8121 450.0804,271.8121 " fill="none" id="architect-flange" style="stroke: #000000; stroke-width: 1.342281879194631;"/><polygon fill="#000000" points="456.985,271.8121,444.9044,266.443,450.2736,271.8121,444.9044,277.1812,456.985,271.8121" style="stroke: #000000; stroke-width: 1.342281879194631;"/><text fill="#000000" font-family="sans-serif" font-size="17.4497" lengthAdjust="spacingAndGlyphs" textLength="48.3221" x="383.8926" y="263.179">FROM</text><!--link architect to app--><path d="M251.2719,312.8475 C238.6643,339.7965 221.6561,376.1514 205.9405,409.7435 " fill="none" id="architect-app" style="stroke: #000000; stroke-width: 1.342281879194631;"/><polygon fill="#000000" points="203.0224,415.9808,213.005,407.3139,205.8665,409.9018,203.2786,402.7633,203.0224,415.9808" style="stroke: #000000; stroke-width: 1.342281879194631;"/><text fill="#000000" font-family="sans-serif" font-size="17.4497" lengthAdjust="spacingAndGlyphs" textLength="68.4564" x="230.2013" y="371.2327">produce</text><!--link flange to DockerRegistry--><path d="M534.8993,312.8475 C534.8993,355.7546 534.8993,422.506 534.8993,463.9859 " fill="none" id="flange-DockerRegistry" style="stroke: #000000; stroke-width: 1.342281879194631;"/><polygon fill="#000000" points="534.8993,470.9217,540.2685,458.8412,534.8993,464.2103,529.5302,458.8412,534.8993,470.9217" style="stroke: #000000; stroke-width: 1.342281879194631;"/><text fill="#000000" font-family="sans-serif" font-size="17.4497" lengthAdjust="spacingAndGlyphs" textLength="72.4832" x="536.2416" y="371.2327">contains</text><!--link architect to DockerRegistry--><path d="M317.7446,312.8475 C367.9926,356.4639 446.6259,424.7192 494.2086,466.0219 " fill="none" id="architect-DockerRegistry" style="stroke: #000000; stroke-width: 1.342281879194631;"/><polygon fill="#000000" points="499.8534,470.9217,494.25,458.9481,494.7851,466.5223,487.2109,467.0574,499.8534,470.9217" style="stroke: #000000; stroke-width: 1.342281879194631;"/><text fill="#000000" font-family="sans-serif" font-size="17.4497" lengthAdjust="spacingAndGlyphs" textLength="72.4832" x="387.2483" y="371.2327">contains</text><!--link app to DockerRegistry--><path d="M318.6148,501.3423 C361.7021,501.3423 407.0272,501.3423 444.9915,501.3423 " fill="none" id="app-DockerRegistry" style="stroke: #000000; stroke-width: 1.342281879194631;"/><polygon fill="#000000" points="451.9925,501.3423,439.9119,495.9732,445.2811,501.3423,439.9119,506.7114,451.9925,501.3423" style="stroke: #000000; stroke-width: 1.342281879194631;"/><text fill="#000000" font-family="sans-serif" font-size="17.4497" lengthAdjust="spacingAndGlyphs" textLength="84.5638" x="342.953" y="492.7092">pushed to</text><!--
--></g></svg>
